Coordinates
version=1
nRows=5
nColumns=40
inDegrees=yes

Units are S.I. units (second, meters, Newtons, ...)
If the header above contains a line with 'inDegrees', this indicates whether rotational values are in degrees (yes) or radians (no).

endheader
time	pelvis_tilt	pelvis_list	pelvis_rotation	pelvis_tx	pelvis_ty	pelvis_tz	hip_flexion_r	hip_adduction_r	hip_rotation_r	knee_angle_r	knee_angle_r_beta	ankle_angle_r	subtalar_angle_r	mtp_angle_r	hip_flexion_l	hip_adduction_l	hip_rotation_l	knee_angle_l	knee_angle_l_beta	ankle_angle_l	subtalar_angle_l	mtp_angle_l	lumbar_extension	lumbar_bending	lumbar_rotation	arm_flex_r	arm_add_r	arm_rot_r	elbow_flex_r	pro_sup_r	wrist_flex_r	wrist_dev_r	arm_flex_l	arm_add_l	arm_rot_l	elbow_flex_l	pro_sup_l	wrist_flex_l	wrist_dev_l
      4.45000000	      7.74049023	      2.34170571	      0.46090923	     -0.41324513	      0.91125523	     -0.73169240	     31.99564501	     -4.60352817	    -13.60717305	     73.74686147	      1.28712555	     20.73481106	      0.00000000	      0.00000000	     55.05041130	     -4.00531167	     -3.90364916	      8.87446383	      0.15488861	     -5.95593055	      0.00000000	      0.00000000	    -24.78571296	      3.11078316	      5.71347144	     89.96452595	    -13.81165034	     16.58611556	     43.62318952	     69.74751834	      0.00000000	      0.00000000	     89.95895595	    -10.08778811	     19.87740537	     41.22063295	     73.77991047	      0.00000000	      0.00000000
      4.45500000	      7.69671622	      2.31834246	      0.44103520	     -0.41326784	      0.91095672	     -0.73161976	     32.06636492	     -4.57222588	    -13.61172977	     73.78116599	      1.28772427	     20.74886691	      0.00000000	      0.00000000	     55.08535220	     -4.06096157	     -3.93789436	      8.83422786	      0.15418636	     -5.97264270	      0.00000000	      0.00000000	    -24.77777411	      3.12662643	      5.75510205	     89.96460196	    -13.82989256	     16.72099272	     43.72642354	     68.32390608	      0.00000000	      0.00000000	     89.95898232	    -10.08410512	     20.03234855	     41.30750203	     72.29629597	      0.00000000	      0.00000000
      4.46000000	      7.65671464	      2.27961536	      0.44579448	     -0.41321358	      0.91071249	     -0.73159090	     32.12527820	     -4.53059307	    -13.62338562	     73.82397423	      1.28847142	     20.73541786	      0.00000000	      0.00000000	     55.14710587	     -4.10659909	     -3.98033195	      8.88518012	      0.15507565	     -5.92703374	      0.00000000	      0.00000000	    -24.75772118	      3.16864402	      5.77887310	     89.96463663	    -13.81349021	     15.87374037	     43.54715176	     75.48327242	      0.00000000	      0.00000000	     89.95902028	    -10.04538825	     19.15366775	     41.13712117	     79.83915947	      0.00000000	      0.00000000
      4.46500000	      7.61902298	      2.22789335	      0.40902450	     -0.41320914	      0.91040666	     -0.73150003	     32.19317824	     -4.44571600	    -13.59602006	     73.85421722	      1.28899926	     20.70532166	      0.00000000	      0.00000000	     55.28517168	     -4.21097853	     -4.23697337	      9.12961254	      0.15934180	     -5.72377231	      0.00000000	      0.00000000	    -24.73163388	      3.21430920	      5.83446709	     89.96467301	    -13.70557784	     15.93615996	     43.52425487	     73.20277113	      0.00000000	      0.00000000	     89.95915852	     -9.96288597	     19.27509329	     41.02080069	     77.31200912	      0.00000000	      0.00000000
      4.47000000	      7.65774326	      2.23340598	      0.42844673	     -0.41317153	      0.91027027	     -0.73154414	     32.15488117	     -4.47705000	    -13.63456081	     73.89093028	      1.28964002	     20.79611628	      0.00000000	      0.00000000	     55.12435185	     -4.18755297	     -4.07608876	      8.85517340	      0.15455193	     -5.84303174	      0.00000000	      0.00000000	    -24.81320938	      3.21672691	      5.86421884	     89.96472545	    -13.81964697	     16.23870383	     43.72410375	     71.26117259	      0.00000000	      0.00000000	     89.95909783	     -9.99353722	     19.70383905	     41.25850058	     75.22889784	      0.00000000	      0.00000000
